<mxfile host="Electron" agent="Mozilla/5.0 (Windows NT 10.0; Win64; x64) AppleWebKit/537.36 (KHTML, like Gecko) draw.io/26.2.2 Chrome/134.0.6998.178 Electron/35.1.2 Safari/537.36" version="26.2.2">
  <diagram name="Page-1" id="VizVTErpn3KlSkKp4W6e">
    <mxGraphModel dx="2088" dy="3604" grid="1" gridSize="10" guides="1" tooltips="1" connect="1" arrows="1" fold="1" page="1" pageScale="1" pageWidth="1654" pageHeight="2336" math="0" shadow="0">
      <root>
        <mxCell id="0" />
        <mxCell id="1" parent="0" />
        <mxCell id="SPgLSMUmqTFrktkxUFNP-49" value="&lt;font style=&quot;font-size: 17px;&quot;&gt;&lt;b&gt;etudiant&lt;/b&gt;&lt;/font&gt;" style="shape=umlActor;verticalLabelPosition=bottom;verticalAlign=top;html=1;" parent="1" vertex="1">
          <mxGeometry x="40" y="-560" width="110" height="140" as="geometry" />
        </mxCell>
        <mxCell id="SPgLSMUmqTFrktkxUFNP-9" value="" style="swimlane;startSize=0;" parent="1" vertex="1">
          <mxGeometry x="440" y="-1350" width="930" height="1270" as="geometry" />
        </mxCell>
        <mxCell id="SPgLSMUmqTFrktkxUFNP-10" value="&lt;font style=&quot;font-size: 14px;&quot;&gt;s&#39;inscrire&lt;/font&gt;" style="shape=ellipse;container=1;horizontal=1;horizontalStack=0;resizeParent=1;resizeParentMax=0;resizeLast=0;html=1;dashed=0;collapsible=0;" parent="SPgLSMUmqTFrktkxUFNP-9" vertex="1">
          <mxGeometry x="170" y="40" width="180" height="60" as="geometry" />
        </mxCell>
        <mxCell id="SPgLSMUmqTFrktkxUFNP-17" value="&lt;font style=&quot;font-size: 14px;&quot;&gt;consulter categorie/&amp;nbsp;&lt;/font&gt;&lt;div&gt;&lt;font style=&quot;font-size: 14px;&quot;&gt;sous categorie&lt;/font&gt;&lt;/div&gt;" style="shape=ellipse;container=1;horizontal=1;horizontalStack=0;resizeParent=1;resizeParentMax=0;resizeLast=0;html=1;dashed=0;collapsible=0;" parent="SPgLSMUmqTFrktkxUFNP-9" vertex="1">
          <mxGeometry x="170" y="112" width="180" height="70" as="geometry" />
        </mxCell>
        <mxCell id="SPgLSMUmqTFrktkxUFNP-18" value="&lt;font style=&quot;font-size: 14px;&quot;&gt;suivre categorie/&amp;nbsp;&lt;/font&gt;&lt;div&gt;&lt;font style=&quot;font-size: 14px;&quot;&gt;sous categorie&lt;/font&gt;&lt;/div&gt;" style="shape=ellipse;container=1;horizontal=1;horizontalStack=0;resizeParent=1;resizeParentMax=0;resizeLast=0;html=1;dashed=0;collapsible=0;" parent="SPgLSMUmqTFrktkxUFNP-9" vertex="1">
          <mxGeometry x="160" y="200" width="180" height="80" as="geometry" />
        </mxCell>
        <mxCell id="SPgLSMUmqTFrktkxUFNP-19" value="&lt;font style=&quot;font-size: 14px;&quot;&gt;publier une publication&lt;/font&gt;" style="shape=ellipse;container=1;horizontal=1;horizontalStack=0;resizeParent=1;resizeParentMax=0;resizeLast=0;html=1;dashed=0;collapsible=0;" parent="SPgLSMUmqTFrktkxUFNP-9" vertex="1">
          <mxGeometry x="180" y="290" width="180" height="60" as="geometry" />
        </mxCell>
        <mxCell id="SPgLSMUmqTFrktkxUFNP-20" value="&lt;font style=&quot;font-size: 14px;&quot;&gt;consulter une publication&lt;/font&gt;" style="shape=ellipse;container=1;horizontal=1;horizontalStack=0;resizeParent=1;resizeParentMax=0;resizeLast=0;html=1;dashed=0;collapsible=0;" parent="SPgLSMUmqTFrktkxUFNP-9" vertex="1">
          <mxGeometry x="180" y="360" width="180" height="60" as="geometry" />
        </mxCell>
        <mxCell id="SPgLSMUmqTFrktkxUFNP-21" value="&lt;font style=&quot;font-size: 14px;&quot;&gt;ajouter un commentaire&lt;/font&gt;" style="shape=ellipse;container=1;horizontal=1;horizontalStack=0;resizeParent=1;resizeParentMax=0;resizeLast=0;html=1;dashed=0;collapsible=0;" parent="SPgLSMUmqTFrktkxUFNP-9" vertex="1">
          <mxGeometry x="130" y="430" width="180" height="50" as="geometry" />
        </mxCell>
        <mxCell id="SPgLSMUmqTFrktkxUFNP-22" value="&lt;font style=&quot;font-size: 14px;&quot;&gt;signaler une publication/&lt;/font&gt;&lt;div&gt;&lt;font style=&quot;font-size: 14px;&quot;&gt;commentaire&lt;/font&gt;&lt;/div&gt;" style="shape=ellipse;container=1;horizontal=1;horizontalStack=0;resizeParent=1;resizeParentMax=0;resizeLast=0;html=1;dashed=0;collapsible=0;" parent="SPgLSMUmqTFrktkxUFNP-9" vertex="1">
          <mxGeometry x="140" y="490" width="180" height="80" as="geometry" />
        </mxCell>
        <mxCell id="SPgLSMUmqTFrktkxUFNP-23" value="&lt;font style=&quot;font-size: 14px;&quot;&gt;gerer les utilisateurs&lt;/font&gt;" style="shape=ellipse;container=1;horizontal=1;horizontalStack=0;resizeParent=1;resizeParentMax=0;resizeLast=0;html=1;dashed=0;collapsible=0;" parent="SPgLSMUmqTFrktkxUFNP-9" vertex="1">
          <mxGeometry x="170" y="590" width="180" height="70" as="geometry" />
        </mxCell>
        <mxCell id="SPgLSMUmqTFrktkxUFNP-24" value="&lt;font style=&quot;font-size: 14px;&quot;&gt;supprimer les utilisateurs&lt;/font&gt;" style="shape=ellipse;container=1;horizontal=1;horizontalStack=0;resizeParent=1;resizeParentMax=0;resizeLast=0;html=1;dashed=0;collapsible=0;" parent="SPgLSMUmqTFrktkxUFNP-9" vertex="1">
          <mxGeometry x="110" y="710" width="180" height="50" as="geometry" />
        </mxCell>
        <mxCell id="SPgLSMUmqTFrktkxUFNP-25" value="&lt;font style=&quot;font-size: 14px;&quot;&gt;modifier les utilisaters&lt;/font&gt;" style="shape=ellipse;container=1;horizontal=1;horizontalStack=0;resizeParent=1;resizeParentMax=0;resizeLast=0;html=1;dashed=0;collapsible=0;" parent="SPgLSMUmqTFrktkxUFNP-9" vertex="1">
          <mxGeometry x="297" y="700" width="180" height="60" as="geometry" />
        </mxCell>
        <mxCell id="SPgLSMUmqTFrktkxUFNP-26" value="&lt;font style=&quot;font-size: 14px;&quot;&gt;gerer les categories/&amp;nbsp;&lt;/font&gt;&lt;div&gt;&lt;font style=&quot;font-size: 14px;&quot;&gt;sous categories&lt;/font&gt;&lt;/div&gt;" style="shape=ellipse;container=1;horizontal=1;horizontalStack=0;resizeParent=1;resizeParentMax=0;resizeLast=0;html=1;dashed=0;collapsible=0;" parent="SPgLSMUmqTFrktkxUFNP-9" vertex="1">
          <mxGeometry x="180" y="780" width="180" height="70" as="geometry" />
        </mxCell>
        <mxCell id="SPgLSMUmqTFrktkxUFNP-27" value="&lt;font style=&quot;font-size: 14px;&quot;&gt;supprimer categorie/&amp;nbsp;&lt;/font&gt;&lt;div&gt;&lt;font style=&quot;font-size: 14px;&quot;&gt;sous categorie&lt;/font&gt;&lt;/div&gt;" style="shape=ellipse;container=1;horizontal=1;horizontalStack=0;resizeParent=1;resizeParentMax=0;resizeLast=0;html=1;dashed=0;collapsible=0;" parent="SPgLSMUmqTFrktkxUFNP-9" vertex="1">
          <mxGeometry x="387" y="890" width="180" height="70" as="geometry" />
        </mxCell>
        <mxCell id="SPgLSMUmqTFrktkxUFNP-36" value="&lt;font style=&quot;font-size: 14px;&quot;&gt;creer categorie/&amp;nbsp;&lt;/font&gt;&lt;div&gt;&lt;font style=&quot;font-size: 14px;&quot;&gt;sous categorie&lt;/font&gt;&lt;/div&gt;" style="shape=ellipse;container=1;horizontal=1;horizontalStack=0;resizeParent=1;resizeParentMax=0;resizeLast=0;html=1;dashed=0;collapsible=0;" parent="SPgLSMUmqTFrktkxUFNP-9" vertex="1">
          <mxGeometry x="10" y="895" width="180" height="60" as="geometry" />
        </mxCell>
        <mxCell id="SPgLSMUmqTFrktkxUFNP-35" value="&lt;font style=&quot;font-size: 14px;&quot;&gt;superviser les commentaire/&lt;/font&gt;&lt;div&gt;&lt;font style=&quot;font-size: 14px;&quot;&gt;publications&lt;/font&gt;&lt;/div&gt;" style="shape=ellipse;container=1;horizontal=1;horizontalStack=0;resizeParent=1;resizeParentMax=0;resizeLast=0;html=1;dashed=0;collapsible=0;" parent="SPgLSMUmqTFrktkxUFNP-9" vertex="1">
          <mxGeometry x="220" y="1000" width="180" height="80" as="geometry" />
        </mxCell>
        <mxCell id="SPgLSMUmqTFrktkxUFNP-34" value="&lt;font style=&quot;font-size: 14px;&quot;&gt;modifier categorie/&amp;nbsp;&lt;/font&gt;&lt;div&gt;&lt;font style=&quot;font-size: 14px;&quot;&gt;sous categorie&lt;/font&gt;&lt;/div&gt;" style="shape=ellipse;container=1;horizontal=1;horizontalStack=0;resizeParent=1;resizeParentMax=0;resizeLast=0;html=1;dashed=0;collapsible=0;" parent="SPgLSMUmqTFrktkxUFNP-9" vertex="1">
          <mxGeometry x="200" y="910" width="180" height="60" as="geometry" />
        </mxCell>
        <mxCell id="SPgLSMUmqTFrktkxUFNP-42" value="&lt;font style=&quot;font-size: 14px;&quot;&gt;examiner les signalements&lt;/font&gt;" style="shape=ellipse;container=1;horizontal=1;horizontalStack=0;resizeParent=1;resizeParentMax=0;resizeLast=0;html=1;dashed=0;collapsible=0;" parent="SPgLSMUmqTFrktkxUFNP-9" vertex="1">
          <mxGeometry x="220" y="1110" width="180" height="70" as="geometry" />
        </mxCell>
        <mxCell id="SPgLSMUmqTFrktkxUFNP-43" value="&lt;font style=&quot;font-size: 15px;&quot;&gt;&lt;b&gt;s&#39;authentifier&lt;/b&gt;&lt;/font&gt;" style="shape=ellipse;container=1;horizontal=1;horizontalStack=0;resizeParent=1;resizeParentMax=0;resizeLast=0;html=1;dashed=0;collapsible=0;" parent="SPgLSMUmqTFrktkxUFNP-9" vertex="1">
          <mxGeometry x="730" y="540" width="180" height="60" as="geometry" />
        </mxCell>
        <mxCell id="njjB-d-d2yw97Rpttcdp-1" value="&lt;font style=&quot;font-size: 14px;&quot;&gt;noter une publication&lt;/font&gt;" style="shape=ellipse;container=1;horizontal=1;horizontalStack=0;resizeParent=1;resizeParentMax=0;resizeLast=0;html=1;dashed=0;collapsible=0;" parent="SPgLSMUmqTFrktkxUFNP-9" vertex="1">
          <mxGeometry x="330" y="440" width="180" height="60" as="geometry" />
        </mxCell>
        <mxCell id="njjB-d-d2yw97Rpttcdp-2" value="&amp;lt;&amp;lt;extends&amp;gt;&amp;gt;" style="endArrow=open;startArrow=none;endFill=0;startFill=0;endSize=8;html=1;verticalAlign=bottom;dashed=1;labelBackgroundColor=none;rounded=0;exitX=0.269;exitY=0.055;exitDx=0;exitDy=0;exitPerimeter=0;entryX=0.049;entryY=0.754;entryDx=0;entryDy=0;entryPerimeter=0;" parent="SPgLSMUmqTFrktkxUFNP-9" source="SPgLSMUmqTFrktkxUFNP-21" target="SPgLSMUmqTFrktkxUFNP-20" edge="1">
          <mxGeometry width="160" relative="1" as="geometry">
            <mxPoint x="60" y="650" as="sourcePoint" />
            <mxPoint x="220" y="650" as="targetPoint" />
          </mxGeometry>
        </mxCell>
        <mxCell id="njjB-d-d2yw97Rpttcdp-3" value="&amp;lt;&amp;lt;extends&amp;gt;&amp;gt;" style="endArrow=open;startArrow=none;endFill=0;startFill=0;endSize=8;html=1;verticalAlign=bottom;dashed=1;labelBackgroundColor=none;rounded=0;exitX=0.187;exitY=0.149;exitDx=0;exitDy=0;exitPerimeter=0;entryX=0.898;entryY=0.853;entryDx=0;entryDy=0;entryPerimeter=0;" parent="SPgLSMUmqTFrktkxUFNP-9" source="njjB-d-d2yw97Rpttcdp-1" target="SPgLSMUmqTFrktkxUFNP-20" edge="1">
          <mxGeometry width="160" relative="1" as="geometry">
            <mxPoint x="219.5" y="697" as="sourcePoint" />
            <mxPoint x="330" y="660" as="targetPoint" />
          </mxGeometry>
        </mxCell>
        <mxCell id="njjB-d-d2yw97Rpttcdp-4" value="&lt;font style=&quot;font-size: 14px;&quot;&gt;recevoir les notifications&lt;/font&gt;" style="shape=ellipse;container=1;horizontal=1;horizontalStack=0;resizeParent=1;resizeParentMax=0;resizeLast=0;html=1;dashed=0;collapsible=0;" parent="SPgLSMUmqTFrktkxUFNP-9" vertex="1">
          <mxGeometry x="460" y="240" width="180" height="60" as="geometry" />
        </mxCell>
        <mxCell id="njjB-d-d2yw97Rpttcdp-5" value="&amp;lt;&amp;lt;extends&amp;gt;&amp;gt;" style="endArrow=open;startArrow=none;endFill=0;startFill=0;endSize=8;html=1;verticalAlign=bottom;dashed=1;labelBackgroundColor=none;rounded=0;exitX=0;exitY=0.5;exitDx=0;exitDy=0;entryX=1;entryY=0.5;entryDx=0;entryDy=0;" parent="SPgLSMUmqTFrktkxUFNP-9" target="SPgLSMUmqTFrktkxUFNP-18" edge="1">
          <mxGeometry width="160" relative="1" as="geometry">
            <mxPoint x="460" y="280" as="sourcePoint" />
            <mxPoint x="461" y="340" as="targetPoint" />
            <Array as="points" />
          </mxGeometry>
        </mxCell>
        <mxCell id="njjB-d-d2yw97Rpttcdp-7" value="&amp;lt;&amp;lt;include&amp;gt;&amp;gt;" style="endArrow=open;startArrow=none;endFill=0;startFill=0;endSize=8;html=1;verticalAlign=bottom;dashed=1;labelBackgroundColor=none;rounded=0;entryX=0.727;entryY=0.056;entryDx=0;entryDy=0;entryPerimeter=0;exitX=1;exitY=0.667;exitDx=0;exitDy=0;exitPerimeter=0;" parent="SPgLSMUmqTFrktkxUFNP-9" source="SPgLSMUmqTFrktkxUFNP-17" target="SPgLSMUmqTFrktkxUFNP-43" edge="1">
          <mxGeometry width="160" relative="1" as="geometry">
            <mxPoint x="400" y="50" as="sourcePoint" />
            <mxPoint x="851" y="489" as="targetPoint" />
          </mxGeometry>
        </mxCell>
        <mxCell id="njjB-d-d2yw97Rpttcdp-10" value="&amp;lt;&amp;lt;include&amp;gt;&amp;gt;" style="endArrow=open;startArrow=none;endFill=0;startFill=0;endSize=8;html=1;verticalAlign=bottom;dashed=1;labelBackgroundColor=none;rounded=0;exitX=1;exitY=0.5;exitDx=0;exitDy=0;" parent="SPgLSMUmqTFrktkxUFNP-9" source="SPgLSMUmqTFrktkxUFNP-19" target="SPgLSMUmqTFrktkxUFNP-43" edge="1">
          <mxGeometry width="160" relative="1" as="geometry">
            <mxPoint x="280" y="385" as="sourcePoint" />
            <mxPoint x="800" y="560" as="targetPoint" />
          </mxGeometry>
        </mxCell>
        <mxCell id="njjB-d-d2yw97Rpttcdp-11" value="&amp;lt;&amp;lt;include&amp;gt;&amp;gt;" style="endArrow=open;startArrow=none;endFill=0;startFill=0;endSize=8;html=1;verticalAlign=bottom;dashed=1;labelBackgroundColor=none;rounded=0;exitX=1.004;exitY=0.621;exitDx=0;exitDy=0;exitPerimeter=0;" parent="SPgLSMUmqTFrktkxUFNP-9" source="SPgLSMUmqTFrktkxUFNP-20" target="SPgLSMUmqTFrktkxUFNP-43" edge="1">
          <mxGeometry width="160" relative="1" as="geometry">
            <mxPoint x="290" y="395" as="sourcePoint" />
            <mxPoint x="810" y="570" as="targetPoint" />
          </mxGeometry>
        </mxCell>
        <mxCell id="njjB-d-d2yw97Rpttcdp-12" value="&amp;lt;&amp;lt;include&amp;gt;&amp;gt;" style="endArrow=open;startArrow=none;endFill=0;startFill=0;endSize=8;html=1;verticalAlign=bottom;dashed=1;labelBackgroundColor=none;rounded=0;exitX=1;exitY=0.5;exitDx=0;exitDy=0;" parent="SPgLSMUmqTFrktkxUFNP-9" source="SPgLSMUmqTFrktkxUFNP-22" edge="1">
          <mxGeometry width="160" relative="1" as="geometry">
            <mxPoint x="300" y="405" as="sourcePoint" />
            <mxPoint x="730" y="570" as="targetPoint" />
          </mxGeometry>
        </mxCell>
        <mxCell id="njjB-d-d2yw97Rpttcdp-14" value="&amp;lt;&amp;lt;include&amp;gt;&amp;gt;" style="endArrow=open;startArrow=none;endFill=0;startFill=0;endSize=8;html=1;verticalAlign=bottom;dashed=1;labelBackgroundColor=none;rounded=0;exitX=0.999;exitY=0.664;exitDx=0;exitDy=0;entryX=0.089;entryY=0.794;entryDx=0;entryDy=0;entryPerimeter=0;exitPerimeter=0;" parent="SPgLSMUmqTFrktkxUFNP-9" source="SPgLSMUmqTFrktkxUFNP-26" target="SPgLSMUmqTFrktkxUFNP-43" edge="1">
          <mxGeometry width="160" relative="1" as="geometry">
            <mxPoint x="510" y="1054" as="sourcePoint" />
            <mxPoint x="914" y="820" as="targetPoint" />
          </mxGeometry>
        </mxCell>
        <mxCell id="njjB-d-d2yw97Rpttcdp-16" value="&amp;lt;&amp;lt;include&amp;gt;&amp;gt;" style="endArrow=open;startArrow=none;endFill=0;startFill=0;endSize=8;html=1;verticalAlign=bottom;dashed=1;labelBackgroundColor=none;rounded=0;exitX=1;exitY=0.5;exitDx=0;exitDy=0;entryX=0.328;entryY=0.979;entryDx=0;entryDy=0;entryPerimeter=0;" parent="SPgLSMUmqTFrktkxUFNP-9" source="SPgLSMUmqTFrktkxUFNP-42" target="SPgLSMUmqTFrktkxUFNP-43" edge="1">
          <mxGeometry width="160" relative="1" as="geometry">
            <mxPoint x="583" y="1739" as="sourcePoint" />
            <mxPoint x="746" y="682" as="targetPoint" />
          </mxGeometry>
        </mxCell>
        <mxCell id="njjB-d-d2yw97Rpttcdp-15" value="&amp;lt;&amp;lt;include&amp;gt;&amp;gt;" style="endArrow=open;startArrow=none;endFill=0;startFill=0;endSize=8;html=1;verticalAlign=bottom;dashed=1;labelBackgroundColor=none;rounded=0;exitX=0.422;exitY=-0.007;exitDx=0;exitDy=0;entryX=0.185;entryY=0.917;entryDx=0;entryDy=0;entryPerimeter=0;exitPerimeter=0;" parent="SPgLSMUmqTFrktkxUFNP-9" source="SPgLSMUmqTFrktkxUFNP-35" target="SPgLSMUmqTFrktkxUFNP-43" edge="1">
          <mxGeometry width="160" relative="1" as="geometry">
            <mxPoint x="297" y="1390" as="sourcePoint" />
            <mxPoint x="736" y="672" as="targetPoint" />
          </mxGeometry>
        </mxCell>
        <mxCell id="njjB-d-d2yw97Rpttcdp-9" value="&amp;lt;&amp;lt;include&amp;gt;&amp;gt;" style="endArrow=open;startArrow=none;endFill=0;startFill=0;endSize=8;html=1;verticalAlign=bottom;dashed=1;labelBackgroundColor=none;rounded=0;exitX=0.943;exitY=0.795;exitDx=0;exitDy=0;exitPerimeter=0;entryX=0.326;entryY=0.039;entryDx=0;entryDy=0;entryPerimeter=0;" parent="SPgLSMUmqTFrktkxUFNP-9" source="SPgLSMUmqTFrktkxUFNP-18" target="SPgLSMUmqTFrktkxUFNP-43" edge="1">
          <mxGeometry width="160" relative="1" as="geometry">
            <mxPoint x="286" y="109" as="sourcePoint" />
            <mxPoint x="710" y="540" as="targetPoint" />
          </mxGeometry>
        </mxCell>
        <mxCell id="njjB-d-d2yw97Rpttcdp-13" value="&amp;lt;&amp;lt;include&amp;gt;&amp;gt;" style="endArrow=open;startArrow=none;endFill=0;startFill=0;endSize=8;html=1;verticalAlign=bottom;dashed=1;labelBackgroundColor=none;rounded=0;exitX=0.929;exitY=0.228;exitDx=0;exitDy=0;exitPerimeter=0;entryX=0.022;entryY=0.728;entryDx=0;entryDy=0;entryPerimeter=0;" parent="SPgLSMUmqTFrktkxUFNP-9" source="SPgLSMUmqTFrktkxUFNP-23" target="SPgLSMUmqTFrktkxUFNP-43" edge="1">
          <mxGeometry width="160" relative="1" as="geometry">
            <mxPoint x="250" y="1420" as="sourcePoint" />
            <mxPoint x="740" y="890" as="targetPoint" />
          </mxGeometry>
        </mxCell>
        <mxCell id="4590Md88HW0pJIgWquAP-8" value="" style="endArrow=block;html=1;rounded=0;align=center;verticalAlign=bottom;endFill=0;labelBackgroundColor=none;endSize=8;exitX=0.648;exitY=0.048;exitDx=0;exitDy=0;exitPerimeter=0;entryX=0.101;entryY=0.879;entryDx=0;entryDy=0;entryPerimeter=0;" parent="SPgLSMUmqTFrktkxUFNP-9" target="SPgLSMUmqTFrktkxUFNP-26" edge="1">
          <mxGeometry relative="1" as="geometry">
            <mxPoint x="126.63999999999987" y="907.8800000000001" as="sourcePoint" />
            <mxPoint x="190" y="800" as="targetPoint" />
          </mxGeometry>
        </mxCell>
        <mxCell id="4590Md88HW0pJIgWquAP-9" value="" style="resizable=0;html=1;align=center;verticalAlign=top;labelBackgroundColor=none;" parent="4590Md88HW0pJIgWquAP-8" connectable="0" vertex="1">
          <mxGeometry relative="1" as="geometry" />
        </mxCell>
        <mxCell id="4590Md88HW0pJIgWquAP-10" value="" style="endArrow=block;html=1;rounded=0;align=center;verticalAlign=bottom;endFill=0;labelBackgroundColor=none;endSize=8;exitX=0.428;exitY=0.044;exitDx=0;exitDy=0;exitPerimeter=0;entryX=0.5;entryY=1;entryDx=0;entryDy=0;" parent="SPgLSMUmqTFrktkxUFNP-9" source="SPgLSMUmqTFrktkxUFNP-34" target="SPgLSMUmqTFrktkxUFNP-26" edge="1">
          <mxGeometry relative="1" as="geometry">
            <mxPoint x="30" y="800" as="sourcePoint" />
            <mxPoint x="190" y="800" as="targetPoint" />
          </mxGeometry>
        </mxCell>
        <mxCell id="4590Md88HW0pJIgWquAP-11" value="" style="resizable=0;html=1;align=center;verticalAlign=top;labelBackgroundColor=none;" parent="4590Md88HW0pJIgWquAP-10" connectable="0" vertex="1">
          <mxGeometry relative="1" as="geometry" />
        </mxCell>
        <mxCell id="4590Md88HW0pJIgWquAP-12" value="" style="endArrow=block;html=1;rounded=0;align=center;verticalAlign=bottom;endFill=0;labelBackgroundColor=none;endSize=8;exitX=0.159;exitY=0.156;exitDx=0;exitDy=0;exitPerimeter=0;entryX=0.842;entryY=0.854;entryDx=0;entryDy=0;entryPerimeter=0;" parent="SPgLSMUmqTFrktkxUFNP-9" target="SPgLSMUmqTFrktkxUFNP-26" edge="1">
          <mxGeometry relative="1" as="geometry">
            <mxPoint x="415.62000000000035" y="910.9200000000001" as="sourcePoint" />
            <mxPoint x="390" y="870" as="targetPoint" />
          </mxGeometry>
        </mxCell>
        <mxCell id="4590Md88HW0pJIgWquAP-13" value="" style="resizable=0;html=1;align=center;verticalAlign=top;labelBackgroundColor=none;" parent="4590Md88HW0pJIgWquAP-12" connectable="0" vertex="1">
          <mxGeometry relative="1" as="geometry" />
        </mxCell>
        <mxCell id="4590Md88HW0pJIgWquAP-14" value="" style="endArrow=block;html=1;rounded=0;align=center;verticalAlign=bottom;endFill=0;labelBackgroundColor=none;endSize=8;exitX=0.389;exitY=0;exitDx=0;exitDy=0;exitPerimeter=0;entryX=0.767;entryY=0.905;entryDx=0;entryDy=0;entryPerimeter=0;" parent="SPgLSMUmqTFrktkxUFNP-9" source="SPgLSMUmqTFrktkxUFNP-25" target="SPgLSMUmqTFrktkxUFNP-23" edge="1">
          <mxGeometry relative="1" as="geometry">
            <mxPoint x="130" y="660" as="sourcePoint" />
            <mxPoint x="290" y="660" as="targetPoint" />
          </mxGeometry>
        </mxCell>
        <mxCell id="4590Md88HW0pJIgWquAP-15" value="" style="resizable=0;html=1;align=center;verticalAlign=top;labelBackgroundColor=none;" parent="4590Md88HW0pJIgWquAP-14" connectable="0" vertex="1">
          <mxGeometry relative="1" as="geometry" />
        </mxCell>
        <mxCell id="4590Md88HW0pJIgWquAP-16" value="" style="endArrow=block;html=1;rounded=0;align=center;verticalAlign=bottom;endFill=0;labelBackgroundColor=none;endSize=8;exitX=0.568;exitY=0.062;exitDx=0;exitDy=0;exitPerimeter=0;entryX=0.337;entryY=0.981;entryDx=0;entryDy=0;entryPerimeter=0;" parent="SPgLSMUmqTFrktkxUFNP-9" source="SPgLSMUmqTFrktkxUFNP-24" target="SPgLSMUmqTFrktkxUFNP-23" edge="1">
          <mxGeometry relative="1" as="geometry">
            <mxPoint x="130" y="660" as="sourcePoint" />
            <mxPoint x="290" y="660" as="targetPoint" />
          </mxGeometry>
        </mxCell>
        <mxCell id="4590Md88HW0pJIgWquAP-17" value="" style="resizable=0;html=1;align=center;verticalAlign=top;labelBackgroundColor=none;" parent="4590Md88HW0pJIgWquAP-16" connectable="0" vertex="1">
          <mxGeometry relative="1" as="geometry" />
        </mxCell>
        <mxCell id="RxSDhpmT7ap7E4ltck7V-2" value="&lt;b&gt;&lt;font style=&quot;font-size: 18px;&quot;&gt;Platform de partage&amp;nbsp; de contenue pedagogique&lt;/font&gt;&lt;/b&gt;" style="text;html=1;align=center;verticalAlign=middle;resizable=0;points=[];autosize=1;strokeColor=none;fillColor=none;" vertex="1" parent="SPgLSMUmqTFrktkxUFNP-9">
          <mxGeometry x="200" width="430" height="40" as="geometry" />
        </mxCell>
        <mxCell id="njjB-d-d2yw97Rpttcdp-19" value="&lt;b&gt;&lt;font style=&quot;font-size: 17px;&quot;&gt;enseignat&lt;/font&gt;&lt;/b&gt;" style="shape=umlActor;verticalLabelPosition=bottom;verticalAlign=top;html=1;" parent="1" vertex="1">
          <mxGeometry x="290" y="-640" width="110" height="140" as="geometry" />
        </mxCell>
        <mxCell id="njjB-d-d2yw97Rpttcdp-27" value="" style="endArrow=none;html=1;rounded=0;entryX=0;entryY=0.369;entryDx=0;entryDy=0;entryPerimeter=0;exitX=0.25;exitY=0.1;exitDx=0;exitDy=0;exitPerimeter=0;" parent="1" source="SPgLSMUmqTFrktkxUFNP-47" target="SPgLSMUmqTFrktkxUFNP-10" edge="1">
          <mxGeometry width="50" height="50" relative="1" as="geometry">
            <mxPoint x="20" y="210" as="sourcePoint" />
            <mxPoint x="380" y="-380" as="targetPoint" />
          </mxGeometry>
        </mxCell>
        <mxCell id="njjB-d-d2yw97Rpttcdp-28" value="" style="endArrow=none;html=1;rounded=0;entryX=0;entryY=0.5;entryDx=0;entryDy=0;exitX=0.75;exitY=0.1;exitDx=0;exitDy=0;exitPerimeter=0;" parent="1" source="SPgLSMUmqTFrktkxUFNP-47" target="SPgLSMUmqTFrktkxUFNP-17" edge="1">
          <mxGeometry width="50" height="50" relative="1" as="geometry">
            <mxPoint x="360" y="240" as="sourcePoint" />
            <mxPoint x="620" y="-636" as="targetPoint" />
          </mxGeometry>
        </mxCell>
        <mxCell id="njjB-d-d2yw97Rpttcdp-29" value="" style="endArrow=none;html=1;rounded=0;entryX=0.163;entryY=0.889;entryDx=0;entryDy=0;exitX=0.75;exitY=0.1;exitDx=0;exitDy=0;exitPerimeter=0;entryPerimeter=0;" parent="1" source="SPgLSMUmqTFrktkxUFNP-47" target="SPgLSMUmqTFrktkxUFNP-18" edge="1">
          <mxGeometry width="50" height="50" relative="1" as="geometry">
            <mxPoint x="243" y="4" as="sourcePoint" />
            <mxPoint x="620" y="-490" as="targetPoint" />
          </mxGeometry>
        </mxCell>
        <mxCell id="njjB-d-d2yw97Rpttcdp-30" value="" style="endArrow=none;html=1;rounded=0;entryX=0;entryY=0.5;entryDx=0;entryDy=0;exitX=0.75;exitY=0.1;exitDx=0;exitDy=0;exitPerimeter=0;" parent="1" source="SPgLSMUmqTFrktkxUFNP-47" target="SPgLSMUmqTFrktkxUFNP-19" edge="1">
          <mxGeometry width="50" height="50" relative="1" as="geometry">
            <mxPoint x="290" y="-840" as="sourcePoint" />
            <mxPoint x="579" y="-313" as="targetPoint" />
          </mxGeometry>
        </mxCell>
        <mxCell id="njjB-d-d2yw97Rpttcdp-31" value="" style="endArrow=none;html=1;rounded=0;entryX=0.027;entryY=0.271;entryDx=0;entryDy=0;exitX=0.736;exitY=0.207;exitDx=0;exitDy=0;exitPerimeter=0;entryPerimeter=0;" parent="1" source="SPgLSMUmqTFrktkxUFNP-47" target="SPgLSMUmqTFrktkxUFNP-20" edge="1">
          <mxGeometry width="50" height="50" relative="1" as="geometry">
            <mxPoint x="253" y="14" as="sourcePoint" />
            <mxPoint x="620" y="-220" as="targetPoint" />
          </mxGeometry>
        </mxCell>
        <mxCell id="njjB-d-d2yw97Rpttcdp-32" value="" style="endArrow=none;html=1;rounded=0;exitX=1;exitY=0.3333333333333333;exitDx=0;exitDy=0;exitPerimeter=0;" parent="1" source="SPgLSMUmqTFrktkxUFNP-47" target="SPgLSMUmqTFrktkxUFNP-22" edge="1">
          <mxGeometry width="50" height="50" relative="1" as="geometry">
            <mxPoint x="241" y="19" as="sourcePoint" />
            <mxPoint x="625" y="-127" as="targetPoint" />
          </mxGeometry>
        </mxCell>
        <mxCell id="njjB-d-d2yw97Rpttcdp-33" value="" style="endArrow=none;html=1;rounded=0;entryX=0.056;entryY=0.25;entryDx=0;entryDy=0;entryPerimeter=0;exitX=0.673;exitY=0.231;exitDx=0;exitDy=0;exitPerimeter=0;" parent="1" source="njjB-d-d2yw97Rpttcdp-19" target="SPgLSMUmqTFrktkxUFNP-23" edge="1">
          <mxGeometry width="50" height="50" relative="1" as="geometry">
            <mxPoint x="251" y="29" as="sourcePoint" />
            <mxPoint x="610" y="142" as="targetPoint" />
          </mxGeometry>
        </mxCell>
        <mxCell id="njjB-d-d2yw97Rpttcdp-34" value="" style="endArrow=none;html=1;rounded=0;entryX=0;entryY=0.5;entryDx=0;entryDy=0;exitX=1;exitY=0.3333333333333333;exitDx=0;exitDy=0;exitPerimeter=0;" parent="1" source="njjB-d-d2yw97Rpttcdp-19" target="SPgLSMUmqTFrktkxUFNP-26" edge="1">
          <mxGeometry width="50" height="50" relative="1" as="geometry">
            <mxPoint x="364" y="282" as="sourcePoint" />
            <mxPoint x="620" y="270" as="targetPoint" />
          </mxGeometry>
        </mxCell>
        <mxCell id="njjB-d-d2yw97Rpttcdp-35" value="" style="endArrow=none;html=1;rounded=0;entryX=0.034;entryY=0.724;entryDx=0;entryDy=0;entryPerimeter=0;exitX=1;exitY=0.3333333333333333;exitDx=0;exitDy=0;exitPerimeter=0;" parent="1" source="njjB-d-d2yw97Rpttcdp-19" target="SPgLSMUmqTFrktkxUFNP-35" edge="1">
          <mxGeometry width="50" height="50" relative="1" as="geometry">
            <mxPoint x="374" y="292" as="sourcePoint" />
            <mxPoint x="630" y="280" as="targetPoint" />
          </mxGeometry>
        </mxCell>
        <mxCell id="njjB-d-d2yw97Rpttcdp-36" value="" style="endArrow=none;html=1;rounded=0;entryX=0.208;entryY=0.096;entryDx=0;entryDy=0;entryPerimeter=0;exitX=1;exitY=0.3333333333333333;exitDx=0;exitDy=0;exitPerimeter=0;" parent="1" source="njjB-d-d2yw97Rpttcdp-19" target="SPgLSMUmqTFrktkxUFNP-42" edge="1">
          <mxGeometry width="50" height="50" relative="1" as="geometry">
            <mxPoint x="384" y="302" as="sourcePoint" />
            <mxPoint x="916" y="1127" as="targetPoint" />
          </mxGeometry>
        </mxCell>
        <mxCell id="SPgLSMUmqTFrktkxUFNP-47" value="&lt;font style=&quot;font-size: 18px;&quot;&gt;&lt;b&gt;utilisateur&lt;/b&gt;&lt;/font&gt;" style="shape=umlActor;verticalLabelPosition=bottom;verticalAlign=top;html=1;" parent="1" vertex="1">
          <mxGeometry x="160" y="-850" width="120" height="150" as="geometry" />
        </mxCell>
        <mxCell id="4590Md88HW0pJIgWquAP-18" value="" style="endArrow=block;html=1;rounded=0;align=center;verticalAlign=bottom;endFill=0;labelBackgroundColor=none;endSize=8;exitX=0.5;exitY=0;exitDx=0;exitDy=0;exitPerimeter=0;entryX=1;entryY=1;entryDx=0;entryDy=0;entryPerimeter=0;" parent="1" source="njjB-d-d2yw97Rpttcdp-19" target="SPgLSMUmqTFrktkxUFNP-47" edge="1">
          <mxGeometry relative="1" as="geometry">
            <mxPoint x="370" y="-660" as="sourcePoint" />
            <mxPoint x="530" y="-660" as="targetPoint" />
          </mxGeometry>
        </mxCell>
        <mxCell id="4590Md88HW0pJIgWquAP-19" value="" style="resizable=0;html=1;align=center;verticalAlign=top;labelBackgroundColor=none;" parent="4590Md88HW0pJIgWquAP-18" connectable="0" vertex="1">
          <mxGeometry relative="1" as="geometry" />
        </mxCell>
        <mxCell id="4590Md88HW0pJIgWquAP-20" value="" style="endArrow=block;html=1;rounded=0;align=center;verticalAlign=bottom;endFill=0;labelBackgroundColor=none;endSize=8;exitX=0.593;exitY=0.012;exitDx=0;exitDy=0;exitPerimeter=0;entryX=0;entryY=1;entryDx=0;entryDy=0;entryPerimeter=0;" parent="1" source="SPgLSMUmqTFrktkxUFNP-49" target="SPgLSMUmqTFrktkxUFNP-47" edge="1">
          <mxGeometry relative="1" as="geometry">
            <mxPoint x="340" y="-660" as="sourcePoint" />
            <mxPoint x="500" y="-660" as="targetPoint" />
          </mxGeometry>
        </mxCell>
        <mxCell id="4590Md88HW0pJIgWquAP-21" value="" style="resizable=0;html=1;align=center;verticalAlign=top;labelBackgroundColor=none;" parent="4590Md88HW0pJIgWquAP-20" connectable="0" vertex="1">
          <mxGeometry relative="1" as="geometry" />
        </mxCell>
        <mxCell id="RxSDhpmT7ap7E4ltck7V-1" value="" style="endArrow=none;html=1;rounded=0;entryX=0.005;entryY=0.026;entryDx=0;entryDy=0;entryPerimeter=0;exitX=1;exitY=0.029;exitDx=0;exitDy=0;exitPerimeter=0;" edge="1" parent="1" source="SPgLSMUmqTFrktkxUFNP-9" target="SPgLSMUmqTFrktkxUFNP-9">
          <mxGeometry width="50" height="50" relative="1" as="geometry">
            <mxPoint x="570" y="-890" as="sourcePoint" />
            <mxPoint x="620" y="-940" as="targetPoint" />
          </mxGeometry>
        </mxCell>
      </root>
    </mxGraphModel>
  </diagram>
</mxfile>
